STARTFONT 2.1
COMMENT This font was automatically resized by bdfresize-1.4
COMMENT   mag_x = 7/6, mag_y = 5/8, blackness = 3
FONT -tomabechi-fixed-medium-r-normal--24-240-72-72-m-240-MuleTibetan-0
SIZE 24 72 72
FONTBOUNDINGBOX 24 26 0 -9
STARTPROPERTIES 22
FOUNDRY "tomabechi"
FAMILY_NAME "fixed"
WEIGHT_NAME "medium"
SLANT "r"
SETWIDTH_NAME "normal"
ADD_STYLE_NAME ""
PIXEL_SIZE 24
POINT_SIZE 240
RESOLUTION_X 72
RESOLUTION_Y 72
SPACING "m"
AVERAGE_WIDTH 240
CHARSET_REGISTRY "MuleTibetan"
CHARSET_ENCODING "0"
STRIKEOUT_ASCENT 20
STRIKEOUT_DESCENT 8
X_HEIGHT 22
COPYRIGHT "Public Domain, original design by Toru Tomabechi 1999"
WEIGHT 10
FONT_ASCENT 19
FONT_DESCENT 7
DEFAULT_CHAR 8481
ENDPROPERTIES
CHARS 265
STARTCHAR space
ENCODING 8481
SWIDTH 12834 0
DWIDTH 26 0
BBX 24 16 0 -5
BITMAP
ffffff
800001
800001
800001
800001
800001
800001
800001
800001
800001
800001
800001
800001
800001
800001
ffffff
ENDCHAR
STARTCHAR OM
ENCODING 8496
SWIDTH 12834 0
DWIDTH 26 0
BBX 24 20 0 -3
BITMAP
00f000
011800
01883f
00f1fe
f80780
7f9c00
01f000
78ff87
78ff9f
707e1f
30cf07
31e707
31f387
3019c7
300863
381823
1ff013
07c00b
000007
000003
ENDCHAR
STARTCHAR TIBETAN MARK GTER YIG MGO TRUNCATED A
ENCODING 8497
SWIDTH 11667 0
DWIDTH 24 0
BBX 21 18 2 -2
BITMAP
007c00
00c600
027c80
018300
007c00
000000
f1fe00
e1fe00
61f800
633c00
63ce00
607700
603180
7070c0
3fe060
1f8030
000010
000008
ENDCHAR
STARTCHAR char8498
ENCODING 8498
SWIDTH 11667 0
DWIDTH 24 0
BBX 21 24 1 -7
BITMAP
008000
008000
00c000
006000
012000
016c00
00f870
03e088
000088
3ff070
7ff000
c07000
803000
803070
e01088
63f088
47f870
000c00
0c0000
0207c0
0187e0
00e010
003ff0
000fe0
ENDCHAR
STARTCHAR char8499
ENCODING 8499
SWIDTH 827 0
DWIDTH 24 0
BBX 21 24 1 -7
BITMAP
008000
008000
00c000
006000
012000
016c00
00f870
03e088
000088
3ff070
7ff000
c070f8
803000
803070
e01088
63f088
47f870
000c00
0c0000
0207c0
0187e0
00e010
003ff0
000fe0
ENDCHAR
STARTCHAR char8500
ENCODING 8500
SWIDTH 18667 0
DWIDTH 38 0
BBX 24 12 0 1
BITMAP
0003f0
000ffc
f01f3e
0c1c0f
021c07
010e07
00c00e
007ffc
011ff1
00c006
007ffc
001ff0
ENDCHAR
STARTCHAR char8501
ENCODING 8501
SWIDTH 1212 0
DWIDTH 30 0
BBX 19 12 0 1
BITMAP
007e00
01ff80
03e7c0
0381e0
8380e0
61c0e0
1801c0
0fff80
23fe20
1800c0
0fff80
03fe00
ENDCHAR
STARTCHAR char8502
ENCODING 8502
SWIDTH 1212 0
DWIDTH 30 0
BBX 24 22 0 -9
BITMAP
0003f0
000ffc
f01f3e
0c1c0f
021c07
010e07
00c00e
007ffc
011ff1
00c006
007ffc
001ff0
000000
000c60
000380
000380
000100
000100
000100
000100
000100
000100
ENDCHAR
STARTCHAR char8503
ENCODING 8503
SWIDTH 23917 0
DWIDTH 48 0
BBX 24 11 0 2
BITMAP
000041
003c49
007e5d
008749
c08341
308341
084341
060749
03fe5d
00fc49
000041
ENDCHAR
STARTCHAR TIBETAN MARK SBRUL SHAD
ENCODING 8504
SWIDTH 6417 0
DWIDTH 13 0
BBX 11 22 3 -9
BITMAP
0020
3860
fce0
8fc0
79e0
cfe0
79c0
cf00
3f80
1f00
0e00
0400
0400
0400
0400
0400
0400
0400
0400
0400
0400
0400
ENDCHAR
STARTCHAR char8505
ENCODING 8505
SWIDTH 9334 0
DWIDTH 19 0
BBX 17 18 3 -6
BITMAP
07f800
0fff00
3c1f80
700780
c00780
000600
0f1800
1fe000
30f000
0f3c00
1fce00
31e700
007300
001980
000c80
000600
000300
000180
ENDCHAR
STARTCHAR char8506
ENCODING 8506
SWIDTH 13417 0
DWIDTH 27 0
BBX 23 20 1 -8
BITMAP
003f80
60fff0
61e0f8
638038
660030
c00060
80f980
81ff00
800380
80f9c0
81fe60
800730
800398
8000cc
800060
600030
600018
600000
380006
0ffffe
ENDCHAR
STARTCHAR TIBETAN MARK INTERSYLLABIC TSHEG
ENCODING 8507
SWIDTH 4084 0
DWIDTH 9 0
BBX 6 3 3 10
BITMAP
fc
78
30
ENDCHAR
STARTCHAR TIBETAN MARK SHAD
ENCODING 8509
SWIDTH 2917 0
DWIDTH 6 0
BBX 5 22 4 -9
BITMAP
f8
f8
70
70
70
70
60
60
60
60
60
20
20
20
20
20
20
20
20
20
20
20
ENDCHAR
STARTCHAR TIBETAN MARK NYIS SHAD
ENCODING 8510
SWIDTH 1000 0
DWIDTH 24 0
BBX 13 22 5 -9
BITMAP
f8f8
f8f8
7070
7070
7070
7070
6060
6060
6060
6060
6060
2020
2020
2020
2020
2020
2020
2020
2020
2020
2020
2020
ENDCHAR
STARTCHAR TIBETAN MARK TSHEG SHAD
ENCODING 8511
SWIDTH 4084 0
DWIDTH 9 0
BBX 5 22 3 -9
BITMAP
f8
70
20
00
f8
f8
70
70
70
70
60
60
60
60
60
20
20
20
20
20
20
20
ENDCHAR
STARTCHAR TIBETAN MARK GNYIS TSHEG SHAD
ENCODING 8512
SWIDTH 1000 0
DWIDTH 24 0
BBX 5 22 3 -9
BITMAP
f8
70
20
f8
70
20
00
f8
f8
70
70
60
60
60
60
20
20
20
20
20
20
20
ENDCHAR
STARTCHAR TIBETAN MARK RIN CHEN SPUNGS SHAD
ENCODING 8513
SWIDTH 1000 0
DWIDTH 24 0
BBX 7 22 2 -9
BITMAP
ee
44
00
7c
38
10
00
7c
7c
38
38
30
30
30
30
10
10
10
10
10
10
10
ENDCHAR
STARTCHAR char8514
ENCODING 8514
SWIDTH 827 0
DWIDTH 24 0
BBX 23 24 0 -9
BITMAP
003000
003000
001800
004400
00c600
007c00
020100
01fe00
000000
fb39be
090120
007c00
000000
003800
003800
003800
003800
003800
003800
001000
001000
001000
001000
001000
ENDCHAR
STARTCHAR char8515
ENCODING 8515
SWIDTH 15167 0
DWIDTH 31 0
BBX 23 23 0 -8
BITMAP
003800
003800
000000
007c00
01ff00
038380
0600c0
0c0060
0c0060
180030
d80036
d80036
d80036
180030
0c0060
0c0060
0600c0
038380
01ff00
007c00
000000
003800
003800
ENDCHAR
STARTCHAR TIBETAN MARK GTER TSHEG
ENCODING 8516
SWIDTH 1000 0
DWIDTH 24 0
BBX 7 14 8 -2
BITMAP
7c
c6
c6
c6
7c
00
fe
fe
00
7c
c6
c6
c6
7c
ENDCHAR
STARTCHAR char8517
ENCODING 8517
SWIDTH 12834 0
DWIDTH 26 0
BBX 20 25 2 -9
BITMAP
fffff0
fffff0
c00030
c00030
ff9ff0
ff9ff0
c00030
c00030
cf9f30
cf9f30
c00030
c00030
fffff0
fffff0
c00030
fc1830
1f8e30
01e730
0073b0
0018f0
000670
000130
0000f0
000030
000010
ENDCHAR
STARTCHAR char8518
ENCODING 8518
SWIDTH 11084 0
DWIDTH 23 0
BBX 21 26 1 -9
BITMAP
fff000
fff000
c03000
cff000
cff000
cc0000
cffff8
cffff8
c00018
fff3f8
fff3f8
003300
fff300
fff300
c00300
ffff00
ffff00
000000
fffff8
fffff8
006000
fffff8
fffff8
c00008
fffff8
fffff8
ENDCHAR
STARTCHAR char8519
ENCODING 8519
SWIDTH 14584 0
DWIDTH 30 0
BBX 22 16 0 -1
BITMAP
000600
002cc4
00698c
00c910
0289f8
048f90
04f810
34f810
27cc30
26cc20
28c460
38cfc0
307f00
3ff800
700000
800000
ENDCHAR
STARTCHAR char8520
ENCODING 8520
SWIDTH 7584 0
DWIDTH 16 0
BBX 18 17 6 -9
BITMAP
000040
000040
01f0c0
011880
010980
018700
00e600
1e3c00
330800
319800
18b000
0fe000
030000
020000
020000
1c0000
f00000
ENDCHAR
STARTCHAR char8521
ENCODING 8521
SWIDTH 11084 0
DWIDTH 23 0
BBX 6 13 10 -9
BITMAP
fc
fc
78
30
30
30
30
30
30
30
30
30
30
ENDCHAR
STARTCHAR char8522
ENCODING 8522
SWIDTH 827 0
DWIDTH 24 0
BBX 8 8 8 1
BITMAP
3c
7e
c3
c3
c3
c3
7e
3c
ENDCHAR
STARTCHAR char8523
ENCODING 8523
SWIDTH 12834 0
DWIDTH 26 0
BBX 21 8 2 1
BITMAP
3c01e0
7e03f0
c30618
c30618
c30618
c30618
7e03f0
3c01e0
ENDCHAR
STARTCHAR char8524
ENCODING 8524
SWIDTH 1212 0
DWIDTH 30 0
BBX 22 17 1 -4
BITMAP
007800
00fc00
018600
018600
018600
018600
00fc00
007800
000000
3c00f0
7e01f8
c3030c
c3030c
c3030c
c3030c
7e01f8
3c00f0
ENDCHAR
STARTCHAR char8525
ENCODING 8525
SWIDTH 7000 0
DWIDTH 14 0
BBX 20 18 3 -2
BITMAP
000070
f800f0
7c01e0
3c03c0
1e0780
0e0e00
071c00
03b800
01f000
00c000
01e000
033000
061800
0c0c00
180600
300300
600180
c000c0
ENDCHAR
STARTCHAR char8526
ENCODING 8526
SWIDTH 14000 0
DWIDTH 28 0
BBX 22 10 1 4
BITMAP
c0cc0c
618618
330330
1e01e0
0c00c0
0e00e0
1b01b0
318318
60c60c
c04c04
ENDCHAR
STARTCHAR char8527
ENCODING 8527
SWIDTH 13417 0
DWIDTH 27 0
BBX 21 10 2 4
BITMAP
001818
3c0c30
7e0660
c303c0
c30180
c301c0
c30360
7e0630
3c0c18
001808
ENDCHAR
STARTCHAR TIBETAN DIGIT ZERO
ENCODING 8528
SWIDTH 8750 0
DWIDTH 18 0
BBX 16 10 3 2
BITMAP
07f8
0ffe
381f
6007
e007
e007
f007
780e
3ffc
0ff0
ENDCHAR
STARTCHAR TIBETAN DIGIT ONE
ENCODING 8529
SWIDTH 8750 0
DWIDTH 18 0
BBX 16 13 3 -1
BITMAP
1ff0
7e7c
f81c
f00e
f00f
300f
080f
001e
0038
0070
00e0
0180
0600
ENDCHAR
STARTCHAR TIBETAN DIGIT TWO
ENCODING 8530
SWIDTH 8750 0
DWIDTH 18 0
BBX 16 12 3 1
BITMAP
07f0
0ffc
3c3e
700e
c00e
800c
0798
1fe0
00f0
0038
000e
0003
ENDCHAR
STARTCHAR TIBETAN DIGIT THREE
ENCODING 8531
SWIDTH 9334 0
DWIDTH 19 0
BBX 16 14 3 -1
BITMAP
03f8
0ffe
380f
c00f
01fe
01fe
000f
000f
1ffe
7ff0
7038
000c
0006
0003
ENDCHAR
STARTCHAR TIBETAN DIGIT FOUR
ENCODING 8532
SWIDTH 9917 0
DWIDTH 20 0
BBX 18 8 3 4
BITMAP
070000
0f8000
f9c000
f07f00
7c0000
1e0000
07f800
03ffc0
ENDCHAR
STARTCHAR TIBETAN DIGIT FIVE
ENCODING 8533
SWIDTH 8750 0
DWIDTH 18 0
BBX 16 10 3 2
BITMAP
e000
e01c
e01c
e01c
e01c
e01c
703c
7ffc
3fce
0f03
ENDCHAR
STARTCHAR TIBETAN DIGIT SIX
ENCODING 8534
SWIDTH 10500 0
DWIDTH 21 0
BBX 19 8 3 4
BITMAP
800000
c00000
607c00
30ff00
18e380
0e70c0
07f840
01f820
ENDCHAR
STARTCHAR TIBETAN DIGIT SEVEN
ENCODING 8535
SWIDTH 10500 0
DWIDTH 21 0
BBX 19 9 3 3
BITMAP
0000c0
0000e0
0000e0
0000e0
0f80e0
39c0e0
60c1c0
80c7c0
01ff00
ENDCHAR
STARTCHAR TIBETAN DIGIT EIGHT
ENCODING 8536
SWIDTH 9334 0
DWIDTH 19 0
BBX 17 10 3 2
BITMAP
060000
0e0000
1c0000
380000
700000
ff8000
fff000
007800
000e00
000380
ENDCHAR
STARTCHAR TIBETAN DIGIT NINE
ENCODING 8537
SWIDTH 8750 0
DWIDTH 18 0
BBX 16 10 3 2
BITMAP
07f8
3ffe
fc0e
f07c
f0e1
787e
3800
0e00
0380
00fc
ENDCHAR
STARTCHAR char8538
ENCODING 8538
SWIDTH 14000 0
DWIDTH 28 0
BBX 22 13 1 -1
BITMAP
03fc00
0f0e00
1c0700
1cffe0
0fc398
fc038c
02038c
000718
000600
000c00
001800
006000
018000
ENDCHAR
STARTCHAR char8539
ENCODING 8539
SWIDTH 14000 0
DWIDTH 28 0
BBX 22 12 1 0
BITMAP
00fe00
038700
060380
00ffe0
0fc398
fc030c
03f60c
07fc18
001e00
000700
000180
0000c0
ENDCHAR
STARTCHAR char8540
ENCODING 8540
SWIDTH 14000 0
DWIDTH 28 0
BBX 22 14 1 -1
BITMAP
00fc00
03ff00
0e0780
100f80
00ff80
0fcee0
fc0718
00038c
07ff0c
0ffc18
0f0e00
000380
0000c0
000060
ENDCHAR
STARTCHAR char8541
ENCODING 8541
SWIDTH 14000 0
DWIDTH 28 0
BBX 22 8 1 3
BITMAP
018000
07c000
3cffc0
1ffff0
fe000c
0f800c
03fc18
00ffc0
ENDCHAR
STARTCHAR char8542
ENCODING 8542
SWIDTH 14000 0
DWIDTH 28 0
BBX 22 10 1 2
BITMAP
0c0000
0c0380
0c0380
0cffe0
0fc398
fe038c
07038c
07ff98
03f8c0
00e060
ENDCHAR
STARTCHAR char8543
ENCODING 8543
SWIDTH 14000 0
DWIDTH 28 0
BBX 22 8 1 4
BITMAP
c00000
c00000
607c00
60ffe0
3fe718
fc618c
0ff0cc
03f058
ENDCHAR
STARTCHAR char8544
ENCODING 8544
SWIDTH 14584 0
DWIDTH 30 0
BBX 22 9 1 4
BITMAP
000080
0000c0
0000c0
0e00c0
1fffe0
2fc1d8
fd81cc
01878c
03fe18
ENDCHAR
STARTCHAR char8545
ENCODING 8545
SWIDTH 14000 0
DWIDTH 28 0
BBX 22 10 1 2
BITMAP
00c000
018000
030000
067fe0
0fe018
fff00c
1ffc0c
001f18
000180
0000c0
ENDCHAR
STARTCHAR char8546
ENCODING 8546
SWIDTH 14000 0
DWIDTH 28 0
BBX 22 10 1 2
BITMAP
01ff80
07ffc0
0f03c0
0effe0
0fce18
ff07cc
03800c
01e018
007000
001f80
ENDCHAR
STARTCHAR char8547
ENCODING 8547
SWIDTH 14584 0
DWIDTH 30 0
BBX 22 10 1 2
BITMAP
00ff00
03ffc0
0601e0
0ffce0
0fc3f8
fe006c
0e006c
0780d8
03ff80
00fe00
ENDCHAR
STARTCHAR char8548
ENCODING 8548
SWIDTH 7000 0
DWIDTH 14 0
BBX 10 12 4 0
BITMAP
ff80
3e00
0800
0000
f800
ff00
0380
0040
f800
ff00
0380
0040
ENDCHAR
STARTCHAR TIBETAN MARK NGAS BZUNG NYI ZLA
ENCODING 8549
SWIDTH 11667 0
DWIDTH 24 0
BBX 13 7 8 -8
BITMAP
1f00
6780
60c0
78c8
9f30
7fe0
3f80
ENDCHAR
STARTCHAR char8550
ENCODING 8550
SWIDTH 12250 0
DWIDTH 25 0
BBX 20 14 2 -2
BITMAP
006000
00f000
00f000
006000
000000
600060
f000f0
f000f0
600060
000000
006000
00f000
00f000
006000
ENDCHAR
STARTCHAR char8551
ENCODING 8551
SWIDTH 11084 0
DWIDTH 23 0
BBX 9 5 8 -7
BITMAP
3e00
c780
c180
f180
3e00
ENDCHAR
STARTCHAR char8552
ENCODING 8552
SWIDTH 11084 0
DWIDTH 23 0
BBX 20 8 2 4
BITMAP
000070
000070
0fe070
3cf070
707070
c0e0f0
0387e0
07ff80
ENDCHAR
STARTCHAR char8553
ENCODING 8553
SWIDTH 14000 0
DWIDTH 28 0
BBX 9 4 14 12
BITMAP
0f80
3f80
7000
c000
ENDCHAR
STARTCHAR char8554
ENCODING 8554
SWIDTH 18667 0
DWIDTH 38 0
BBX 24 13 0 0
BITMAP
000006
00000f
000009
00780f
e0cc66
3806f0
0c0690
0606f0
038c66
00f00f
000009
00000f
000006
ENDCHAR
STARTCHAR char8555
ENCODING 8555
SWIDTH 1212 0
DWIDTH 30 0
BBX 24 13 0 0
BITMAP
600000
f00000
900000
f01e00
663307
0f601c
096030
0f6060
6631c0
f00f00
900000
f00000
600000
ENDCHAR
STARTCHAR TIBETAN MARK ANG KHANG GYON
ENCODING 8556
SWIDTH 14584 0
DWIDTH 30 0
BBX 24 25 0 -8
BITMAP
000007
00007e
000060
07ffc0
0e0000
1c0000
1c0000
1c0000
1c0000
1c0000
1c0000
1c0000
1c0000
1c0000
1c0000
1c0000
1c0000
1c0000
1c0000
1c0000
1c0000
1c0000
1c0000
3c0000
f00000
ENDCHAR
STARTCHAR TIBETAN MARK ANG KHANG GYAS
ENCODING 8557
SWIDTH 1212 0
DWIDTH 30 0
BBX 24 25 0 -8
BITMAP
e00000
7e0000
060000
03ffe0
000070
000038
000038
000038
000038
000038
000038
000038
000038
000038
000038
000038
000038
000038
000038
000038
000038
000038
000038
00003c
00000f
ENDCHAR
STARTCHAR char8558
ENCODING 8558
SWIDTH 6417 0
DWIDTH 13 0
BBX 13 12 11 -6
BITMAP
07f8
1f80
7800
7000
e000
e000
e000
e000
e000
e000
e000
e000
ENDCHAR
STARTCHAR char8559
ENCODING 8559
SWIDTH 827 0
DWIDTH 24 0
BBX 13 12 0 -6
BITMAP
ff00
0fc0
00f0
0070
0038
0038
0038
0038
0038
0038
0038
0038
ENDCHAR
STARTCHAR TIBETAN LETTER KA
ENCODING 8737
SWIDTH 11084 0
DWIDTH 23 0
BBX 20 18 2 -5
BITMAP
3ffff0
3ffff0
01f070
017070
033070
0e1830
7c0830
f00c30
800430
000610
000210
000210
000010
000010
000010
000010
000010
000010
ENDCHAR
STARTCHAR TIBETAN LETTER KHA
ENCODING 8738
SWIDTH 11084 0
DWIDTH 23 0
BBX 20 18 2 -5
BITMAP
1ffff0
7ffff0
707fe0
e070f0
e0e030
e0c030
e18010
c10010
c1f810
c1ff10
c007f0
c00070
800000
800000
800000
800000
800000
800000
ENDCHAR
STARTCHAR TIBETAN LETTER GA
ENCODING 8739
SWIDTH 10500 0
DWIDTH 21 0
BBX 19 18 2 -5
BITMAP
ffffe0
ffffe0
1ff8e0
3c38e0
701ce0
400c60
800c60
ff8460
ffe460
00f420
001c20
000420
000020
000020
000020
000020
000020
000020
ENDCHAR
STARTCHAR TIBETAN LETTER GHA
ENCODING 8740
SWIDTH 11084 0
DWIDTH 23 0
BBX 19 22 2 -9
BITMAP
ffffe0
ffffe0
1ff0e0
7838e0
c01860
8f0c60
ffc460
fff420
000c20
000420
3fff80
0e0000
300f80
607fc0
7fc1e0
07e0e0
00e0c0
003180
001300
000400
000800
001000
ENDCHAR
STARTCHAR TIBETAN LETTER NGA
ENCODING 8741
SWIDTH 10500 0
DWIDTH 21 0
BBX 19 13 2 0
BITMAP
ffffc0
ffffc0
3e0000
380000
700000
600000
400000
9fe000
fffc00
c03f00
000380
0000c0
000020
ENDCHAR
STARTCHAR TIBETAN LETTER CA
ENCODING 8742
SWIDTH 10500 0
DWIDTH 21 0
BBX 19 13 2 0
BITMAP
3fff00
3fff00
03e000
00c000
00c000
01f800
063f00
1807c0
f003e0
3800e0
1e00e0
0781c0
01ff00
ENDCHAR
STARTCHAR TIBETAN LETTER CHA
ENCODING 8743
SWIDTH 11084 0
DWIDTH 23 0
BBX 19 13 3 0
BITMAP
7fff80
7fff80
07e000
00c000
00c000
1fff80
7fffc0
e0c0e0
80c020
80c020
80c020
60c0c0
1f3f80
ENDCHAR
STARTCHAR TIBETAN LETTER JA
ENCODING 8744
SWIDTH 11084 0
DWIDTH 23 0
BBX 20 14 2 -1
BITMAP
3fffe0
3fffc0
380000
380000
700000
7fff80
7fff00
600000
e00000
c7fc00
ffff00
ffffc0
000060
000010
ENDCHAR
STARTCHAR TIBETAN LETTER NYA
ENCODING 8746
SWIDTH 11667 0
DWIDTH 24 0
BBX 21 18 2 -5
BITMAP
0ff000
3ffc00
600e00
c00600
e03f80
7cffe0
3d8070
018038
018038
00fc38
007870
000060
0000c0
000180
000300
000600
000c00
001000
ENDCHAR
STARTCHAR TIBETAN LETTER TTA
ENCODING 8747
SWIDTH 9917 0
DWIDTH 20 0
BBX 17 20 4 -7
BITMAP
ffff80
ffff80
000380
000380
000300
000700
3fc600
7ff600
f01c00
e00400
e00000
700000
300000
180000
0c0000
060000
030000
018000
004000
002000
ENDCHAR
STARTCHAR TIBETAN LETTER TTHA
ENCODING 8748
SWIDTH 9334 0
DWIDTH 19 0
BBX 17 14 3 -1
BITMAP
fffe00
ffff00
e00380
e00380
ffff80
87ff00
807c00
800600
800100
80f880
8fff80
bfff80
f80000
c00000
ENDCHAR
STARTCHAR TIBETAN LETTER DDA
ENCODING 8749
SWIDTH 10500 0
DWIDTH 21 0
BBX 19 20 2 -7
BITMAP
1fffe0
1fffe0
007f80
0007c0
0001c0
000060
000020
00ffe0
07ffe0
0f8000
1c0000
180000
300000
300000
600000
600000
400000
800000
800000
800000
ENDCHAR
STARTCHAR TIBETAN LETTER DDHA
ENCODING 8750
SWIDTH 827 0
DWIDTH 24 0
BBX 20 22 1 -9
BITMAP
0fffe0
0fffe0
003fc0
0003c0
000060
000030
01fff0
07ffe0
0f0000
1c0000
3fffc0
470000
9807c0
303fe0
3fe0f0
03f070
007060
0018c0
000980
000200
000400
000800
ENDCHAR
STARTCHAR TIBETAN LETTER NNA
ENCODING 8751
SWIDTH 11084 0
DWIDTH 23 0
BBX 20 21 2 -8
BITMAP
0fffc0
0fffc0
003800
003000
003f00
00ffc0
03e060
07c010
0ec010
1c6020
181fc0
380000
300000
300000
600000
600000
400000
400000
800000
800000
800000
ENDCHAR
STARTCHAR TIBETAN LETTER TA
ENCODING 8752
SWIDTH 9917 0
DWIDTH 20 0
BBX 18 19 3 -6
BITMAP
ffff80
ffff80
e00000
700000
700000
33fc00
3fff80
1807c0
1801c0
0801c0
040380
000300
000600
000c00
001800
003000
006000
00c000
018000
ENDCHAR
STARTCHAR TIBETAN LETTER THA
ENCODING 8753
SWIDTH 827 0
DWIDTH 24 0
BBX 17 14 3 -1
BITMAP
1fff80
7fff80
e00380
e00780
fff880
7f8080
300080
400080
800080
ff8080
fff080
007e80
000180
000080
ENDCHAR
STARTCHAR TIBETAN LETTER DA
ENCODING 8754
SWIDTH 11084 0
DWIDTH 23 0
BBX 19 19 3 -6
BITMAP
7fff80
7fff80
0fe000
1e0000
300000
600000
8fe000
fffc00
fffe00
000f00
000300
000180
000080
0000c0
000040
000040
000020
000020
000020
ENDCHAR
STARTCHAR TIBETAN LETTER DHA
ENCODING 8755
SWIDTH 11084 0
DWIDTH 23 0
BBX 20 22 3 -9
BITMAP
7fff80
7fff80
1f0000
300000
400000
fff800
fffe00
000700
000180
000040
7fff20
1c0010
601f00
c0ff80
ff83c0
0fc1c0
01c180
006300
002600
000800
001000
002000
ENDCHAR
STARTCHAR TIBETAN LETTER NA
ENCODING 8756
SWIDTH 10500 0
DWIDTH 21 0
BBX 19 22 3 -9
BITMAP
7fff00
7fff00
07e000
00c000
00c000
1fc000
7ff000
c0fc00
807e00
806700
40c300
3f0180
000180
0000c0
0000c0
000040
000040
000060
000020
000020
000020
000020
ENDCHAR
STARTCHAR TIBETAN LETTER PA
ENCODING 8757
SWIDTH 11084 0
DWIDTH 23 0
BBX 20 14 2 -1
BITMAP
7ff8f0
7ff8f0
1f00f0
1c0030
300030
600030
600010
c00010
fff010
fffe10
000790
0000d0
000030
000010
ENDCHAR
STARTCHAR TIBETAN LETTER PHA
ENCODING 8758
SWIDTH 11084 0
DWIDTH 23 0
BBX 20 14 2 -1
BITMAP
7ff8f0
7ff8f0
1e01f0
1c03f0
300630
601c30
603010
c06010
fff010
fffe10
000790
0000d0
000030
000010
ENDCHAR
STARTCHAR TIBETAN LETTER BA
ENCODING 8759
SWIDTH 827 0
DWIDTH 24 0
BBX 20 14 2 -1
BITMAP
7ffff0
7ffff0
1f00f0
1c0030
300030
600030
600010
c00010
fff010
fffe10
000790
0000d0
000030
000010
ENDCHAR
STARTCHAR TIBETAN LETTER BHA
ENCODING 8760
SWIDTH 11667 0
DWIDTH 24 0
BBX 20 22 1 -9
BITMAP
7ffff0
7ffff0
3e0070
380070
700070
c00030
fff030
fffe30
0003b0
000070
3fff90
0e0000
300f80
607fc0
7fc1e0
07e0e0
00e0c0
003180
001300
000400
000800
001000
ENDCHAR
STARTCHAR TIBETAN LETTER MA
ENCODING 8761
SWIDTH 11084 0
DWIDTH 23 0
BBX 20 13 2 0
BITMAP
7ff8f0
7ff8f0
03c030
01c030
00c030
0fe030
3ff810
607e10
c02710
c06190
60c050
1f0030
000010
ENDCHAR
STARTCHAR TIBETAN LETTER TSA
ENCODING 8762
SWIDTH 827 0
DWIDTH 24 0
BBX 20 16 2 0
BITMAP
000030
0000e0
000100
3fff00
3fff00
03e000
00c000
00c000
01f800
063f00
1807c0
f003e0
3800e0
1e00e0
0781c0
01ff00
ENDCHAR
STARTCHAR TIBETAN LETTER TSHA
ENCODING 8763
SWIDTH 827 0
DWIDTH 24 0
BBX 21 16 3 0
BITMAP
000018
000070
000080
7fff80
7fff80
07e000
00c000
00c000
1fff80
7fffc0
e0c0e0
80c020
80c020
80c020
60c0c0
1f3f80
ENDCHAR
STARTCHAR TIBETAN LETTER DZA
ENCODING 8764
SWIDTH 827 0
DWIDTH 24 0
BBX 22 17 2 -1
BITMAP
00000c
000038
000040
3fffc0
3fff80
380000
380000
700000
7fff80
7fff00
600000
e00000
c7fc00
ffff00
ffffc0
000060
000010
ENDCHAR
STARTCHAR TIBETAN LETTER DZHA
ENCODING 8765
SWIDTH 827 0
DWIDTH 24 0
BBX 22 25 2 -9
BITMAP
00000c
000038
000040
3fffc0
3fff80
380000
380000
7fff00
7ffe00
600000
e00000
ffff00
ffffc0
000060
3fff90
0e0000
300f80
607fc0
7fc1e0
03c0e0
0060c0
001180
000300
000400
000800
ENDCHAR
STARTCHAR TIBETAN LETTER WA
ENCODING 8766
SWIDTH 11084 0
DWIDTH 23 0
BBX 20 14 2 -1
BITMAP
3f07f0
7f87e0
c1c600
80c300
818180
87fff0
07fff0
070030
0c0030
0fe010
1ffc10
000790
0000f0
000030
ENDCHAR
STARTCHAR TIBETAN LETTER ZHA
ENCODING 8767
SWIDTH 11084 0
DWIDTH 23 0
BBX 20 19 2 -6
BITMAP
03fff0
0e07e0
180060
30f860
71fec0
6307c0
e30380
e307c0
61f8c0
3000e0
180060
060060
000020
000030
000030
000010
000010
000010
000010
ENDCHAR
STARTCHAR TIBETAN LETTER ZA
ENCODING 8768
SWIDTH 10500 0
DWIDTH 21 0
BBX 18 14 3 -1
BITMAP
3fffc0
7fffc0
0007c0
0000c0
0000c0
1ff8c0
3fffc0
000fc0
0001c0
000040
7ff040
fffc40
003f40
0001c0
ENDCHAR
STARTCHAR TIBETAN LETTER -A
ENCODING 8769
SWIDTH 11667 0
DWIDTH 24 0
BBX 21 17 2 -4
BITMAP
07ffc0
1c1f80
300380
6001c0
6000c0
e000c0
e000c0
700180
780300
387f00
19ff80
0000e0
000030
000010
000018
000008
000008
ENDCHAR
STARTCHAR TIBETAN LETTER YA
ENCODING 8770
SWIDTH 10500 0
DWIDTH 21 0
BBX 19 12 2 1
BITMAP
f1e1e0
f1e1e0
20c060
604060
804060
802020
83fc20
7fff20
3c03a0
0000e0
000060
000020
ENDCHAR
STARTCHAR TIBETAN LETTER RA
ENCODING 8771
SWIDTH 11667 0
DWIDTH 24 0
BBX 21 13 2 0
BITMAP
3fff80
3fff80
07c000
00e000
007000
003000
006000
3ff800
ffff00
c007c0
0000e0
000030
000008
ENDCHAR
STARTCHAR TIBETAN LETTER LA
ENCODING 8772
SWIDTH 11084 0
DWIDTH 23 0
BBX 20 12 2 1
BITMAP
0ff070
3ff070
407030
803030
803010
c03010
706010
31fc10
01ff10
0001d0
000030
000010
ENDCHAR
STARTCHAR TIBETAN LETTER SHA
ENCODING 8773
SWIDTH 11667 0
DWIDTH 24 0
BBX 19 20 4 -7
BITMAP
007fe0
01ffe0
0200e0
040060
040020
060020
038060
017fe0
f90020
ff0020
078020
00c020
000020
000020
000020
000020
000020
000020
000020
000020
ENDCHAR
STARTCHAR TIBETAN LETTER SSA
ENCODING 8774
SWIDTH 827 0
DWIDTH 24 0
BBX 19 20 1 -7
BITMAP
ffc000
fff000
e00800
c00400
800400
800c00
c03800
ffd000
8013e0
801fe0
803c00
806000
800000
800000
800000
800000
800000
800000
800000
800000
ENDCHAR
STARTCHAR TIBETAN LETTER SA
ENCODING 8775
SWIDTH 11084 0
DWIDTH 23 0
BBX 20 13 2 0
BITMAP
1ffcf0
3ff8f0
1fe030
19f830
303c30
600e30
600710
ff8190
ffe0d0
00f050
001830
000010
000010
ENDCHAR
STARTCHAR TIBETAN LETTER HA
ENCODING 8776
SWIDTH 9917 0
DWIDTH 20 0
BBX 18 18 3 -5
BITMAP
fffe00
fffe00
1e0000
380000
607e00
c1ff80
fe07c0
1f01c0
0381c0
00c1c0
006380
000300
000600
000c00
000800
001000
002000
004000
ENDCHAR
STARTCHAR TIBETAN LETTER A
ENCODING 8777
SWIDTH 12250 0
DWIDTH 25 0
BBX 22 12 1 1
BITMAP
c3fe7c
c3fe7c
41f81c
431c0c
460e0c
47c30c
40e184
406044
40e024
3fc014
1f800c
000004
ENDCHAR
STARTCHAR TIBETAN LETTER KSSA
ENCODING 8778
SWIDTH 12250 0
DWIDTH 25 0
BBX 20 20 2 -7
BITMAP
3ffff0
7ffff0
03e070
036070
063030
7c1830
f00830
000830
000010
ffe010
e01810
c00c10
e00c00
f83800
c7cfe0
c00ff0
c01800
c00000
c00000
c00000
ENDCHAR
STARTCHAR DUMMY VOWEL A
ENCODING 8785
SWIDTH 1000 0
DWIDTH 24 0
BBX 0 0 24 -9
BITMAP
ENDCHAR
STARTCHAR TIBETAN VOWEL SIGN I
ENCODING 8787
SWIDTH 827 0
DWIDTH 24 0
BBX 18 6 3 4
BITMAP
7f0000
ffe000
c0f800
fc0e00
780300
0000c0
ENDCHAR
STARTCHAR TIBETAN VOWEL SIGN U
ENCODING 8789
SWIDTH 827 0
DWIDTH 24 0
BBX 18 6 3 -6
BITMAP
c00000
300780
1c0fc0
0780c0
03ffc0
007f00
ENDCHAR
STARTCHAR TIBETAN VOWEL SIGN E
ENCODING 8795
SWIDTH 1000 0
DWIDTH 24 0
BBX 19 4 3 4
BITMAP
ffc000
fffc00
003f80
000060
ENDCHAR
STARTCHAR TIBETAN VOWEL SIGN EE
ENCODING 8796
SWIDTH 11084 0
DWIDTH 23 0
BBX 19 7 3 4
BITMAP
7f8000
7ff800
001e00
ffc300
fff980
003ec0
0001e0
ENDCHAR
STARTCHAR TIBETAN VOWEL SIGN O
ENCODING 8797
SWIDTH 11084 0
DWIDTH 23 0
BBX 23 6 0 4
BITMAP
00007e
0007f8
f80f80
7fd800
07e000
003000
ENDCHAR
STARTCHAR TIBETAN VOWEL SIGN OO
ENCODING 8798
SWIDTH 11084 0
DWIDTH 23 0
BBX 23 8 0 4
BITMAP
f800fe
7f0ff0
07de00
e060fe
ff33f8
1ff600
00f800
000c00
ENDCHAR
STARTCHAR TIBETAN SIGN RJES SU NGA RO
ENCODING 8799
SWIDTH 11084 0
DWIDTH 23 0
BBX 9 5 9 7
BITMAP
3e00
c780
c180
f180
3e00
ENDCHAR
STARTCHAR TIBETAN SIGN RNAM BCAD
ENCODING 8800
SWIDTH 4667 0
DWIDTH 10 0
BBX 7 14 8 -2
BITMAP
7c
c6
c6
c6
7c
00
00
00
00
7c
c6
c6
c6
7c
ENDCHAR
STARTCHAR TIBETAN VOWEL SIGN REVERSED I
ENCODING 8801
SWIDTH 1000 0
DWIDTH 24 0
BBX 18 6 3 4
BITMAP
003f80
01ffc0
07c0c0
1c0fc0
300780
c00000
ENDCHAR
STARTCHAR TIBETAN SIGN NYI ZLA NAA DA
ENCODING 8803
SWIDTH 11084 0
DWIDTH 23 0
BBX 12 9 7 5
BITMAP
0400
0400
0600
0300
2180
1f80
8f10
70e0
1f80
ENDCHAR
STARTCHAR TIBETAN SIGN SNA LDAN
ENCODING 8804
SWIDTH 827 0
DWIDTH 24 0
BBX 12 7 7 5
BITMAP
0f00
1380
30c0
1c80
8f10
70e0
1f80
ENDCHAR
STARTCHAR TIBETAN MARK HALANTA
ENCODING 8805
SWIDTH 1000 0
DWIDTH 24 0
BBX 18 4 4 -7
BITMAP
ffc000
fff800
003f00
0000c0
ENDCHAR
STARTCHAR TIBETAN SIGN PALUTA
ENCODING 8806
SWIDTH 11667 0
DWIDTH 24 0
BBX 21 19 2 -7
BITMAP
07fc00
38fc00
400c00
800400
c01f80
7cffe0
1980f0
030038
030038
01fc18
007818
000030
000030
000060
000040
000040
000040
000020
000010
ENDCHAR
STARTCHAR char8807
ENCODING 8807
SWIDTH 11084 0
DWIDTH 23 0
BBX 6 7 9 9
BITMAP
30
30
30
60
c4
c4
78
ENDCHAR
STARTCHAR char8808
ENCODING 8808
SWIDTH 11084 0
DWIDTH 23 0
BBX 2 7 13 9
BITMAP
c0
c0
c0
c0
c0
c0
c0
ENDCHAR
STARTCHAR char8809
ENCODING 8809
SWIDTH 11084 0
DWIDTH 23 0
BBX 17 9 3 6
BITMAP
ffff80
ffff80
180c00
063000
01c000
063000
180c00
ffff80
ffff80
ENDCHAR
STARTCHAR char8810
ENCODING 8810
SWIDTH 11084 0
DWIDTH 23 0
BBX 19 7 3 7
BITMAP
1f1f00
71f1c0
e0e0e0
c0e060
c0e060
60e0c0
20e080
ENDCHAR
STARTCHAR char8811
ENCODING 8811
SWIDTH 11084 0
DWIDTH 23 0
BBX 18 8 3 6
BITMAP
fe1fc0
fe1fc0
c618c0
c618c0
c618c0
c618c0
c7f8c0
c7f8c0
ENDCHAR
STARTCHAR char8812
ENCODING 8812
SWIDTH 11084 0
DWIDTH 23 0
BBX 19 8 3 6
BITMAP
3f83c0
7fc660
c0c620
80c620
818600
c7f600
600e00
000200
ENDCHAR
STARTCHAR TIBETAN SUBJOINED LETTER KA
ENCODING 8993
SWIDTH 11084 0
DWIDTH 23 0
BBX 20 10 2 3
BITMAP
3ffff0
3ffff0
017070
023070
3c1830
780830
800430
000210
000010
000010
ENDCHAR
STARTCHAR TIBETAN SUBJOINED LETTER KHA
ENCODING 8994
SWIDTH 11084 0
DWIDTH 23 0
BBX 20 10 2 3
BITMAP
1ffff0
7ffff0
e0f060
c0e030
c1c030
c1f810
81ff10
8000d0
800030
800000
ENDCHAR
STARTCHAR TIBETAN SUBJOINED LETTER GA
ENCODING 8995
SWIDTH 10500 0
DWIDTH 21 0
BBX 19 10 2 3
BITMAP
ffffe0
ffffe0
7038e0
c01ce0
800c60
ff0c60
ffe420
007420
000c20
000020
ENDCHAR
STARTCHAR TIBETAN SUBJOINED LETTER GHA
ENCODING 8996
SWIDTH 10500 0
DWIDTH 21 0
BBX 19 17 2 -4
BITMAP
ffffe0
ffffe0
701860
c00c60
fe0c60
ffe420
001c20
3fff20
7ffe00
180000
303fc0
3effe0
0780e0
00c0e0
002180
000e00
003000
ENDCHAR
STARTCHAR TIBETAN SUBJOINED LETTER NGA
ENCODING 8997
SWIDTH 10500 0
DWIDTH 21 0
BBX 18 9 3 4
BITMAP
7fff80
7fff80
3e0000
380000
700000
ffc000
fffc00
000700
0000c0
ENDCHAR
STARTCHAR TIBETAN SUBJOINED LETTER CA
ENCODING 8998
SWIDTH 10500 0
DWIDTH 21 0
BBX 19 10 2 3
BITMAP
3fff00
3fff00
01c000
00c000
03ff00
0e07c0
f000e0
1c00e0
0f81c0
01fe00
ENDCHAR
STARTCHAR TIBETAN SUBJOINED LETTER CHA
ENCODING 8999
SWIDTH 11084 0
DWIDTH 23 0
BBX 20 10 2 3
BITMAP
3fffc0
3fffc0
01e000
006000
3fffe0
7ffff0
c06010
806010
606060
1f9f80
ENDCHAR
STARTCHAR TIBETAN SUBJOINED LETTER JA
ENCODING 9000
SWIDTH 10500 0
DWIDTH 21 0
BBX 19 9 3 4
BITMAP
3fffe0
3fffe0
300000
7fff80
7fff00
600000
ffff00
ffffc0
000020
ENDCHAR
STARTCHAR TIBETAN SUBJOINED LETTER NYA
ENCODING 9002
SWIDTH 9917 0
DWIDTH 20 0
BBX 18 12 3 1
BITMAP
1ff800
60f800
800800
80fe00
c3ff80
6603c0
0600c0
0300c0
01c180
000300
000400
001800
ENDCHAR
STARTCHAR TIBETAN SUBJOINED LETTER TTA
ENCODING 9003
SWIDTH 9917 0
DWIDTH 20 0
BBX 17 9 4 4
BITMAP
ffff80
ffff80
000300
7f8600
fff400
c00c00
400000
300000
0c0000
ENDCHAR
STARTCHAR TIBETAN SUBJOINED LETTER TTHA
ENCODING 9004
SWIDTH 9917 0
DWIDTH 20 0
BBX 17 11 3 2
BITMAP
fff800
fffe00
e00300
e00300
fc7f00
83fe00
800600
800100
80ff80
9fff80
e00000
ENDCHAR
STARTCHAR TIBETAN SUBJOINED LETTER DDA
ENCODING 9005
SWIDTH 10500 0
DWIDTH 21 0
BBX 18 11 4 2
BITMAP
7fffc0
7fffc0
007e00
000700
000180
00ffc0
07ffc0
1f0000
300000
400000
800000
ENDCHAR
STARTCHAR TIBETAN SUBJOINED LETTER DDHA
ENCODING 9006
SWIDTH 827 0
DWIDTH 24 0
BBX 18 18 3 -5
BITMAP
ffff80
ffff80
003c00
000e00
03f300
1fff80
600780
000000
7ffe00
fffc00
300000
607f80
7dffc0
0f01c0
0181c0
004300
001c00
006000
ENDCHAR
STARTCHAR TIBETAN SUBJOINED LETTER NNA
ENCODING 9007
SWIDTH 9917 0
DWIDTH 20 0
BBX 17 10 4 3
BITMAP
3fff00
3fff00
00e000
01fe00
07ff00
0f8080
198080
20ff00
403c00
800000
ENDCHAR
STARTCHAR TIBETAN SUBJOINED LETTER TA
ENCODING 9008
SWIDTH 9917 0
DWIDTH 20 0
BBX 17 11 4 2
BITMAP
ffff00
ffff00
e00000
61fc00
77ff00
3c0380
180180
080180
000700
001c00
00e000
ENDCHAR
STARTCHAR TIBETAN SUBJOINED LETTER THA
ENCODING 9009
SWIDTH 9334 0
DWIDTH 19 0
BBX 17 11 4 2
BITMAP
1fff80
7fff80
c00380
e01f80
7fe380
300180
600180
ff8080
fff080
001e80
000180
ENDCHAR
STARTCHAR TIBETAN SUBJOINED LETTER DA
ENCODING 9010
SWIDTH 10500 0
DWIDTH 21 0
BBX 19 11 3 2
BITMAP
7fff80
7fff80
0fc000
1c0000
300000
fff000
fffc00
000e00
000300
0000c0
000020
ENDCHAR
STARTCHAR TIBETAN SUBJOINED LETTER DHA
ENCODING 9011
SWIDTH 827 0
DWIDTH 24 0
BBX 19 18 3 -5
BITMAP
7fff80
7fff80
0fc000
1c0000
300000
fff000
fffc00
000e00
7fff00
fffcc0
300020
607f80
7dffc0
0f01c0
0181c0
004300
001c00
006000
ENDCHAR
STARTCHAR TIBETAN SUBJOINED LETTER NA
ENCODING 9012
SWIDTH 9917 0
DWIDTH 20 0
BBX 18 12 3 1
BITMAP
3fff00
3fff00
078000
018000
7fe000
fff000
807800
80cc00
7f0600
000100
000080
000040
ENDCHAR
STARTCHAR TIBETAN SUBJOINED LETTER PA
ENCODING 9013
SWIDTH 11084 0
DWIDTH 23 0
BBX 20 9 2 4
BITMAP
7ff870
7ff070
380030
600030
600030
ffc010
fffe10
0003d0
000030
ENDCHAR
STARTCHAR TIBETAN SUBJOINED LETTER PHA
ENCODING 9014
SWIDTH 827 0
DWIDTH 24 0
BBX 20 9 2 4
BITMAP
7ff870
7ff070
3800f0
600330
600430
ffc810
fffe10
0003d0
000030
ENDCHAR
STARTCHAR TIBETAN SUBJOINED LETTER BA
ENCODING 9015
SWIDTH 827 0
DWIDTH 24 0
BBX 20 9 2 4
BITMAP
7ffff0
7ffff0
380030
600030
600030
ffc010
fffe10
0003d0
000030
ENDCHAR
STARTCHAR TIBETAN SUBJOINED LETTER BHA
ENCODING 9016
SWIDTH 827 0
DWIDTH 24 0
BBX 20 18 2 -5
BITMAP
7ffff0
7ffff0
380030
600030
600030
ffc010
fffe10
0003d0
3fff30
7ffe00
180000
303fc0
3effe0
0780e0
00c0e0
002180
000e00
003000
ENDCHAR
STARTCHAR TIBETAN SUBJOINED LETTER MA
ENCODING 9017
SWIDTH 11084 0
DWIDTH 23 0
BBX 20 9 2 4
BITMAP
7ff8f0
3ff8f0
030030
01c030
3fe030
407c10
806710
4080f0
3f0030
ENDCHAR
STARTCHAR TIBETAN SUBJOINED LETTER TSA
ENCODING 9018
SWIDTH 827 0
DWIDTH 24 0
BBX 20 13 2 3
BITMAP
000030
0000e0
000100
3fff00
3fff00
01c000
00c000
03ff00
0e07c0
f000e0
1c00e0
0f81c0
01fe00
ENDCHAR
STARTCHAR TIBETAN SUBJOINED LETTER TSHA
ENCODING 9019
SWIDTH 827 0
DWIDTH 24 0
BBX 22 13 2 3
BITMAP
00000c
000038
000040
3fffc0
3fffc0
01e000
006000
3fffe0
7ffff0
c06010
806010
606060
1f9f80
ENDCHAR
STARTCHAR TIBETAN SUBJOINED LETTER DZA
ENCODING 9020
SWIDTH 827 0
DWIDTH 24 0
BBX 21 12 3 4
BITMAP
000018
000070
000080
3fff80
3fff80
300000
7ffe00
7ffc00
600000
fffe00
ffff80
000040
ENDCHAR
STARTCHAR TIBETAN SUBJOINED LETTER DZHA
ENCODING 9021
SWIDTH 827 0
DWIDTH 24 0
BBX 21 20 3 -4
BITMAP
000018
000070
000080
3fff80
3fff80
300000
7ffe00
600000
e00000
ffff80
000040
fffe00
300000
607f80
7dffc0
0f01c0
0181c0
004300
001c00
006000
ENDCHAR
STARTCHAR TIBETAN SUBJOINED LETTER WA
ENCODING 9022
SWIDTH 11084 0
DWIDTH 23 0
BBX 7 8 13 4
BITMAP
02
02
0e
32
c2
22
1a
06
ENDCHAR
STARTCHAR TIBETAN SUBJOINED LETTER ZHA
ENCODING 9023
SWIDTH 10500 0
DWIDTH 21 0
BBX 19 12 3 1
BITMAP
03ffe0
0fffe0
3800c0
71fcc0
e3ff80
e20380
f3ff80
39f8c0
0c0040
000060
000020
000020
ENDCHAR
STARTCHAR TIBETAN SUBJOINED LETTER ZA
ENCODING 9024
SWIDTH 10500 0
DWIDTH 21 0
BBX 16 9 6 4
BITMAP
ffff
ffff
0007
3ff3
3fff
0003
7fe3
fffd
0003
ENDCHAR
STARTCHAR TIBETAN SUBJOINED LETTER -A
ENCODING 9025
SWIDTH 11667 0
DWIDTH 24 0
BBX 11 7 12 -9
BITMAP
1f00
3f80
4180
c100
cf80
4fc0
0020
ENDCHAR
STARTCHAR TIBETAN SUBJOINED LETTER YA
ENCODING 9026
SWIDTH 11667 0
DWIDTH 24 0
BBX 20 8 2 -9
BITMAP
000060
000060
f800e0
67ff80
387c30
0e00e0
03ffc0
007f00
ENDCHAR
STARTCHAR TIBETAN SUBJOINED LETTER RA
ENCODING 9027
SWIDTH 11667 0
DWIDTH 24 0
BBX 18 5 3 -7
BITMAP
000040
ffc040
fff840
003f40
0000c0
ENDCHAR
STARTCHAR TIBETAN SUBJOINED LETTER LA
ENCODING 9028
SWIDTH 827 0
DWIDTH 24 0
BBX 20 9 2 4
BITMAP
0ff070
3ff070
403030
803030
c03010
706010
31fc10
01ff90
000070
ENDCHAR
STARTCHAR TIBETAN SUBJOINED LETTER SHA
ENCODING 9029
SWIDTH 11084 0
DWIDTH 23 0
BBX 18 10 3 3
BITMAP
00ffc0
03ffc0
040040
0200c0
03ffc0
f4fc40
3c0040
060040
000040
000040
ENDCHAR
STARTCHAR TIBETAN SUBJOINED LETTER SSA
ENCODING 9030
SWIDTH 827 0
DWIDTH 24 0
BBX 18 10 3 3
BITMAP
ffc000
fff000
800800
c01000
fff000
8fcbc0
800f00
801800
800000
800000
ENDCHAR
STARTCHAR TIBETAN SUBJOINED LETTER SA
ENCODING 9031
SWIDTH 9917 0
DWIDTH 20 0
BBX 18 9 3 4
BITMAP
7fe3c0
7fe3c0
3fc0c0
40f0c0
801840
fe0640
0f8340
01c0c0
000040
ENDCHAR
STARTCHAR TIBETAN SUBJOINED LETTER HA
ENCODING 9032
SWIDTH 9917 0
DWIDTH 20 0
BBX 18 11 3 2
BITMAP
7ffe00
7ffe00
1f0000
383f00
61ff80
f801c0
1f00c0
018180
000300
000400
001800
ENDCHAR
STARTCHAR TIBETAN SUBJOINED LETTER A
ENCODING 9033
SWIDTH 11084 0
DWIDTH 23 0
BBX 20 10 2 3
BITMAP
f3fcf0
f3fcf0
43e030
467030
4f9c30
40ce10
406310
6060d0
3fc030
1f8010
ENDCHAR
STARTCHAR TIBETAN SUBJOINED LETTER KSSA
ENCODING 9034
SWIDTH 827 0
DWIDTH 24 0
BBX 20 15 2 -2
BITMAP
7ffff0
7ffff0
017070
023070
3c1830
780830
800430
7fc210
7fe010
401010
602000
7fe000
4f9780
401e00
403000
ENDCHAR
STARTCHAR TIBETAN SUPERSCRIBED LETTER RA
ENCODING 9040
SWIDTH 827 0
DWIDTH 24 0
BBX 14 6 7 7
BITMAP
fffc
fffc
01c0
00c0
00c0
00c0
ENDCHAR
STARTCHAR TIBETAN SUBJOINED LETTER HYA
ENCODING 9041
SWIDTH 827 0
DWIDTH 24 0
BBX 20 14 2 -1
BITMAP
3fff00
7ffe00
180000
303fc0
3effe0
0780e0
00c0e0
002180
f80600
67f800
380030
0e00e0
03ffc0
007f00
ENDCHAR
STARTCHAR TIBETAN MARK NYI ZLA LEFT HALF
ENCODING 9042
SWIDTH 827 0
DWIDTH 24 0
BBX 11 6 13 6
BITMAP
fe00
03c0
0060
fe00
03c0
0060
ENDCHAR
STARTCHAR TIBETAN MARK NYI ZLA RIGHT HALF
ENCODING 9043
SWIDTH 827 0
DWIDTH 24 0
BBX 24 12 0 1
BITMAP
0003f0
000ffc
001f3e
801c0f
e01c07
380e07
87000e
e0fffc
381ff1
0f0006
01fffc
003ff0
ENDCHAR
STARTCHAR KWA
ENCODING 9249
SWIDTH 827 0
DWIDTH 24 0
BBX 20 18 2 -5
BITMAP
3ffff0
3ffff0
01f070
017070
033070
0e1830
7c0830
f00c30
800430
000610
000210
000210
000070
000190
000310
0000d0
000030
000010
ENDCHAR
STARTCHAR KHWA
ENCODING 9250
SWIDTH 827 0
DWIDTH 24 0
BBX 20 18 2 -5
BITMAP
1ffff0
7ffff0
707fe0
e070f0
e0e030
e0c030
e18010
c10010
c1f810
c1ff10
c007f0
c00070
800070
800190
800310
8000d0
800030
800010
ENDCHAR
STARTCHAR GWA
ENCODING 9251
SWIDTH 827 0
DWIDTH 24 0
BBX 19 18 3 -5
BITMAP
ffffe0
ffffe0
1ff8e0
3c38e0
701ce0
400c60
800c60
ff8460
ffe460
00f420
001c20
000420
0000e0
000320
000620
0001a0
000060
000020
ENDCHAR
STARTCHAR CWA
ENCODING 9252
SWIDTH 827 0
DWIDTH 24 0
BBX 19 17 2 -4
BITMAP
3fff00
3fff00
01c000
00c000
03ff00
0e07c0
f000e0
1c00e0
0f81c0
01fe00
000400
001c00
006400
00c400
003400
000c00
000400
ENDCHAR
STARTCHAR NYWA
ENCODING 9253
SWIDTH 827 0
DWIDTH 24 0
BBX 18 18 3 -5
BITMAP
1ff800
60f800
800800
80fe00
c3ff80
6603c0
0600c0
0300c0
01c180
000300
000c00
001800
003800
00c800
018800
006800
001800
000800
ENDCHAR
STARTCHAR TWA
ENCODING 9254
SWIDTH 827 0
DWIDTH 24 0
BBX 17 18 4 -5
BITMAP
ffff00
ffff00
600000
61fc00
27ff00
140380
180180
080180
000700
001c00
007000
00c000
038000
0c8000
188000
068000
018000
008000
ENDCHAR
STARTCHAR DWA
ENCODING 9255
SWIDTH 11084 0
DWIDTH 23 0
BBX 20 22 2 -9
BITMAP
7fff80
7fff80
3fe000
3e0000
300000
600000
400000
fff800
fffe00
003f00
000780
0001c0
0000c0
000060
000020
000010
000010
000070
000190
000310
0000d0
000030
ENDCHAR
STARTCHAR TSWA
ENCODING 9256
SWIDTH 827 0
DWIDTH 24 0
BBX 20 20 2 -4
BITMAP
000030
0000e0
000100
3fff00
3fff00
01c000
00c000
03ff00
0e07c0
f000e0
1c00e0
0f81c0
01fe00
000400
001c00
006400
00c400
003400
000c00
000400
ENDCHAR
STARTCHAR TSWA
ENCODING 9257
SWIDTH 827 0
DWIDTH 24 0
BBX 20 18 2 -5
BITMAP
3fffc0
3fffc0
01e000
006000
3fffe0
7ffff0
c06010
806010
606060
1f9f80
000400
000400
001c00
006400
00c400
003400
000c00
000400
ENDCHAR
STARTCHAR ZHWA
ENCODING 9258
SWIDTH 827 0
DWIDTH 24 0
BBX 20 20 2 -7
BITMAP
03fff0
0e07e0
180060
30f860
71fec0
6307c0
e30380
e307c0
61f8c0
300040
180060
060020
000020
000010
000070
000190
000310
0000d0
000030
000010
ENDCHAR
STARTCHAR ZWA
ENCODING 9259
SWIDTH 827 0
DWIDTH 24 0
BBX 16 18 6 -5
BITMAP
ffff
ffff
0007
3ff3
3fff
0003
7fe3
fffd
0003
0001
0001
0001
0007
0019
0031
000d
0003
0001
ENDCHAR
STARTCHAR RWA
ENCODING 9260
SWIDTH 827 0
DWIDTH 24 0
BBX 21 20 2 -7
BITMAP
3fff80
3fff80
07c000
00e000
007000
003000
006000
3ff800
ffff00
c007c0
0000e0
000030
000008
000008
000038
0000c8
000188
000068
000018
000008
ENDCHAR
STARTCHAR LWA
ENCODING 9261
SWIDTH 827 0
DWIDTH 24 0
BBX 20 18 2 -5
BITMAP
1ff070
71f070
c07030
803030
803010
c03010
706010
31fc10
01ff10
0001d0
000030
000010
000070
000190
000310
0000d0
000030
000010
ENDCHAR
STARTCHAR SHWA
ENCODING 9262
SWIDTH 827 0
DWIDTH 24 0
BBX 18 18 4 -5
BITMAP
00ffc0
03ffc0
0401c0
0800c0
080040
0c0040
0700c0
02ffc0
f20040
fe0040
0f0040
018040
0001c0
000640
000c40
000340
0000c0
000040
ENDCHAR
STARTCHAR SWA
ENCODING 9263
SWIDTH 827 0
DWIDTH 24 0
BBX 20 18 2 -5
BITMAP
1ffcf0
3ff8f0
1fe030
19f830
303c30
600e30
600710
ff8190
ffe0d0
00f050
001830
000010
000070
000190
000310
0000d0
000030
000010
ENDCHAR
STARTCHAR HWA
ENCODING 9264
SWIDTH 827 0
DWIDTH 24 0
BBX 18 21 3 -8
BITMAP
fffe00
fffe00
1e0000
380000
607e00
c1ff80
fe07c0
1f01c0
0381c0
00c1c0
006380
002300
000600
000c00
001000
007000
019000
031000
00d000
003000
001000
ENDCHAR
STARTCHAR KYA
ENCODING 9280
SWIDTH 827 0
DWIDTH 24 0
BBX 21 18 1 -5
BITMAP
3ffff0
3ffff0
01f070
017070
033070
0e1830
7c0830
f00c30
800430
000410
000010
000010
7c0060
33ffc0
1c3e18
070050
01ffe0
003f80
ENDCHAR
STARTCHAR KHYA
ENCODING 9281
SWIDTH 827 0
DWIDTH 24 0
BBX 22 18 2 -5
BITMAP
1ffff0
7ffff0
707fe0
e070f0
e0e030
e0c030
e18010
c1fc10
c1ff90
c000f0
c00010
c00010
9f0020
8cffc0
870f0c
81c018
807ff0
800fc0
ENDCHAR
STARTCHAR GYA
ENCODING 9282
SWIDTH 827 0
DWIDTH 24 0
BBX 21 18 3 -5
BITMAP
ffffe0
ffffe0
1ff8e0
3c38e0
701ce0
400c60
800c60
ff8460
ffe460
00fc20
000420
000020
7c0040
33ff80
1c3e18
070030
01ffe0
003f80
ENDCHAR
STARTCHAR PYA
ENCODING 9283
SWIDTH 827 0
DWIDTH 24 0
BBX 21 18 3 -5
BITMAP
ffe1e0
ffe1e0
1e0060
380060
600060
400060
800020
ffc020
fffe20
0007a0
000060
000020
7c0040
33ff80
1c3e18
070030
01ffe0
003f80
ENDCHAR
STARTCHAR PHYA
ENCODING 9284
SWIDTH 827 0
DWIDTH 24 0
BBX 21 18 3 -5
BITMAP
ffe1e0
ffe1e0
1e01e0
380660
600860
401060
802020
ffe020
fffe20
0007a0
000060
000020
7c0040
33ff80
1c3e18
070030
01ffe0
003f80
ENDCHAR
STARTCHAR BYA
ENCODING 9285
SWIDTH 827 0
DWIDTH 24 0
BBX 21 18 3 -5
BITMAP
ffffe0
ffffe0
1e0060
380060
600060
400060
800020
ffc020
fffe20
0007a0
000060
000020
7c0040
33ff80
1c3e18
070030
01ffe0
003f80
ENDCHAR
STARTCHAR MYA
ENCODING 9286
SWIDTH 12834 0
DWIDTH 26 0
BBX 22 18 2 -5
BITMAP
fff0f0
fff0f0
0f8030
038030
018030
3fe030
fff830
c08e10
c08310
610090
1e0050
000030
3e0020
19ffc0
0e1f0c
038018
00fff0
001fc0
ENDCHAR
STARTCHAR PHYWA
ENCODING 9287
SWIDTH 827 0
DWIDTH 24 0
BBX 21 22 3 -9
BITMAP
ffe1e0
ffe1e0
1e01e0
380660
600860
401060
802020
ffe020
fffe20
0007a0
000060
000020
780040
3fff88
070030
01ffc0
000c00
001c00
006400
00c400
003400
000c00
ENDCHAR
STARTCHAR KRA
ENCODING 9296
SWIDTH 827 0
DWIDTH 24 0
BBX 20 16 1 -3
BITMAP
3ffff0
3ffff0
01f070
017070
033070
0e1830
7c0830
f00c30
800430
000410
000010
000010
3ff010
3ffe10
000fd0
000030
ENDCHAR
STARTCHAR KHRA
ENCODING 9297
SWIDTH 827 0
DWIDTH 24 0
BBX 20 18 2 -5
BITMAP
1ffff0
7ffff0
707fe0
e070f0
e0e030
e0c030
e18010
c1fc10
c1ff90
c000f0
c00010
c00010
83f010
83fe10
800fd0
800030
800000
800000
ENDCHAR
STARTCHAR GRA
ENCODING 9298
SWIDTH 827 0
DWIDTH 24 0
BBX 19 16 3 -3
BITMAP
ffffe0
ffffe0
1ff8e0
3c38e0
701ce0
400c60
800c60
ff8460
ffe460
00fc20
000420
000020
7fe020
7ffc20
001fa0
000060
ENDCHAR
STARTCHAR TRA
ENCODING 9299
SWIDTH 827 0
DWIDTH 24 0
BBX 17 16 4 -3
BITMAP
ffff00
ffff00
600000
61fc00
27ff00
140380
180180
080180
000700
001c00
007000
00c000
ff8000
fff000
007c00
000300
ENDCHAR
STARTCHAR THRA
ENCODING 9300
SWIDTH 827 0
DWIDTH 24 0
BBX 17 18 3 -5
BITMAP
1fff80
7fff80
e00380
e00780
fff880
7f8080
300080
400080
800080
ff8080
fff080
007e80
000180
ff8080
fff080
007e80
000180
000080
ENDCHAR
STARTCHAR DRA
ENCODING 9301
SWIDTH 827 0
DWIDTH 24 0
BBX 19 16 3 -3
BITMAP
7fff80
7fff80
0fe000
1e0000
300000
600000
8fe000
fff800
fffc00
000e00
000300
000180
7fe0c0
7ffc40
001fa0
000060
ENDCHAR
STARTCHAR PRA
ENCODING 9302
SWIDTH 827 0
DWIDTH 24 0
BBX 19 16 3 -3
BITMAP
7fe1e0
7fe1e0
1e0060
380060
600060
400060
800020
ffc020
fffe20
0007a0
000060
000020
7fe020
7ffc20
001fa0
000060
ENDCHAR
STARTCHAR PHRA
ENCODING 9303
SWIDTH 827 0
DWIDTH 24 0
BBX 19 16 3 -3
BITMAP
7fe1e0
7fe1e0
1e01e0
380660
600860
401060
802020
ffe020
fffe20
0007a0
000060
000020
7fe020
7ffc20
001fa0
000060
ENDCHAR
STARTCHAR BRA
ENCODING 9304
SWIDTH 827 0
DWIDTH 24 0
BBX 19 16 3 -3
BITMAP
7fffe0
7fffe0
1e0060
380060
600060
400060
800020
ffc020
fffe20
0007a0
000060
000020
7fe020
7ffc20
001fa0
000060
ENDCHAR
STARTCHAR MRA
ENCODING 9305
SWIDTH 827 0
DWIDTH 24 0
BBX 20 16 2 -3
BITMAP
fff0f0
fff0f0
0f8030
038030
018030
3fe030
fff830
c08e10
c08310
610090
1e0050
000030
3ff010
3ffe10
000fd0
000030
ENDCHAR
STARTCHAR SHRA
ENCODING 9306
SWIDTH 827 0
DWIDTH 24 0
BBX 18 16 4 -3
BITMAP
00ffc0
03ffc0
0401c0
0800c0
0800c0
0600c0
03ffc0
f20040
fe0040
0f0040
018040
000040
ffc040
fff840
003f40
0000c0
ENDCHAR
STARTCHAR SRA
ENCODING 9307
SWIDTH 827 0
DWIDTH 24 0
BBX 20 16 2 -3
BITMAP
1ffcf0
3ff8f0
1fe030
19f830
303c30
600e30
600710
ff8190
ffe0d0
00f050
001830
000010
3ff010
3ffe10
000fd0
000030
ENDCHAR
STARTCHAR HRA
ENCODING 9308
SWIDTH 827 0
DWIDTH 24 0
BBX 19 16 3 -3
BITMAP
fffe00
fffe00
1e0000
380000
607e00
c1ff80
fe01c0
0f00c0
0180c0
004180
000300
000c00
7ff000
7ffc00
001f80
000060
ENDCHAR
STARTCHAR JRA
ENCODING 9309
SWIDTH 827 0
DWIDTH 24 0
BBX 20 16 2 -3
BITMAP
3fffc0
3fff80
380000
380000
7fff00
7ffe00
600000
e00000
fff800
fffe00
000300
000080
3ff040
3ffe20
000fe0
000030
ENDCHAR
STARTCHAR DZRA
ENCODING 9310
SWIDTH 827 0
DWIDTH 24 0
BBX 22 19 2 -3
BITMAP
00000c
000038
000040
3fffc0
3fff80
380000
380000
7fff00
7ffe00
600000
e00000
fff800
fffe00
000300
000080
3ff040
3ffe20
000fe0
000030
ENDCHAR
STARTCHAR GRWA
ENCODING 9311
SWIDTH 827 0
DWIDTH 24 0
BBX 19 22 2 -9
BITMAP
ffffe0
ffffe0
1ff8e0
3c38e0
701ce0
400c60
800c60
ff8460
ffe460
00fc20
000420
000020
7fe020
7ffc20
001fa0
000060
0000e0
000320
000620
0001a0
000060
000020
ENDCHAR
STARTCHAR KLA
ENCODING 9312
SWIDTH 827 0
DWIDTH 24 0
BBX 20 19 2 -6
BITMAP
3ffff0
3ffff0
017070
023070
3c1830
780830
800430
000210
000010
000010
0ff070
3ff070
403030
803030
c03010
706010
31fc10
01ff90
000070
ENDCHAR
STARTCHAR GLA
ENCODING 9313
SWIDTH 827 0
DWIDTH 24 0
BBX 20 19 2 -6
BITMAP
7ffff0
7ffff0
0ffc70
1e1c70
380e70
200630
400630
7fc230
7ff230
007e10
0ff270
3ff070
403030
803030
c03010
706010
31fc10
01ff90
000070
ENDCHAR
STARTCHAR BLA
ENCODING 9314
SWIDTH 827 0
DWIDTH 24 0
BBX 20 19 2 -6
BITMAP
3ffff0
3ffff0
0f0030
1c0030
300030
200030
400010
7fe010
7fff10
0003d0
0ff070
3ff070
403030
803030
c03010
706010
31fc10
01ff90
000070
ENDCHAR
STARTCHAR ZLA
ENCODING 9315
SWIDTH 827 0
DWIDTH 24 0
BBX 20 19 2 -6
BITMAP
0ffff0
0ffff0
000070
03ff30
03fff0
000030
07fe30
0fffd0
000030
000010
0ff070
3ff070
403030
803030
c03010
706010
31fc10
01ff90
000070
ENDCHAR
STARTCHAR RLA
ENCODING 9316
SWIDTH 827 0
DWIDTH 24 0
BBX 20 19 2 -6
BITMAP
3fff80
3fff80
07c000
00e000
007000
003000
006000
3ff800
ffff00
c007c0
0ff0f0
3ff070
403030
803030
c03010
706010
31fc10
01ff90
000070
ENDCHAR
STARTCHAR SLA
ENCODING 9317
SWIDTH 827 0
DWIDTH 24 0
BBX 20 19 2 -6
BITMAP
1ffcf0
3ff8f0
1fe030
19f830
303c30
600e30
600710
ff8190
ffe0d0
00f050
0ff870
3ff070
403030
803030
c03010
706010
31fc10
01ff90
000070
ENDCHAR
STARTCHAR RKA
ENCODING 9505
SWIDTH 827 0
DWIDTH 24 0
BBX 20 16 1 -3
BITMAP
1fffe0
1fffe0
003000
001000
3ffff0
3ffff0
01f070
017070
033070
0e1830
7c0830
f00c30
800430
000410
000010
000010
ENDCHAR
STARTCHAR RGA
ENCODING 9506
SWIDTH 827 0
DWIDTH 24 0
BBX 19 16 3 -3
BITMAP
7fff80
7fff80
00c000
004000
ffffe0
ffffe0
1ff8e0
3c38e0
701ce0
400c60
800c60
ff8460
ffe460
00fc20
000420
000020
ENDCHAR
STARTCHAR RNGA
ENCODING 9507
SWIDTH 827 0
DWIDTH 24 0
BBX 18 13 3 0
BITMAP
7fff80
7fff80
00c000
004000
7fff80
7fff80
3e0000
380000
700000
ffc000
fffc00
000700
0000c0
ENDCHAR
STARTCHAR RJA
ENCODING 9508
SWIDTH 827 0
DWIDTH 24 0
BBX 18 13 3 0
BITMAP
7fff80
7fff80
00c000
004000
3fff80
3fff80
300000
7ffe00
7ffc00
600000
fffe00
ffff80
000040
ENDCHAR
STARTCHAR RNYA
ENCODING 9509
SWIDTH 827 0
DWIDTH 24 0
BBX 20 21 2 -8
BITMAP
3fff80
3fff80
01c000
006000
002000
006000
3ff800
ffff00
8007c0
0ffc60
307c10
400400
407f00
61ffc0
3301e0
030060
018060
00e0c0
000180
000200
000c00
ENDCHAR
STARTCHAR RTA
ENCODING 9510
SWIDTH 827 0
DWIDTH 24 0
BBX 17 16 4 -3
BITMAP
ffff00
ffff00
018000
008000
ffff00
ffff00
600000
61fc00
27ff00
140380
180180
080180
000300
000c00
003000
00c000
ENDCHAR
STARTCHAR RDA
ENCODING 9511
SWIDTH 827 0
DWIDTH 24 0
BBX 20 19 2 -6
BITMAP
3fffc0
3fffc0
006000
002000
7fff80
7fff80
1f8000
380000
300000
600000
fff800
fffe00
000700
000180
0000c0
000020
000020
000010
000010
ENDCHAR
STARTCHAR RNA
ENCODING 9512
SWIDTH 827 0
DWIDTH 24 0
BBX 18 16 3 -3
BITMAP
7fff80
7fff80
00c000
004000
3fff00
3fff00
078000
018000
7fe000
fff000
807800
80cc00
7f0600
000100
000080
000040
ENDCHAR
STARTCHAR RBA
ENCODING 9513
SWIDTH 827 0
DWIDTH 24 0
BBX 19 16 3 -3
BITMAP
7fff80
7fff80
00c000
004000
7fffe0
7fffe0
1e0060
380060
600060
400060
800020
ffc020
fffe20
0007a0
000060
000020
ENDCHAR
STARTCHAR RMA
ENCODING 9514
SWIDTH 827 0
DWIDTH 24 0
BBX 20 16 2 -3
BITMAP
3ff800
3ff800
030000
010000
7ff8f0
3ff8f0
030030
01c030
3ff030
7ffc10
804610
804110
408090
3f0050
000030
000010
ENDCHAR
STARTCHAR RTSA
ENCODING 9515
SWIDTH 827 0
DWIDTH 24 0
BBX 22 14 2 -1
BITMAP
3fffc0
3fffcc
006038
002040
3fffc0
3fffc0
01c000
00c000
03ff00
0e07c0
f000e0
1c00e0
0f81c0
01fe00
ENDCHAR
STARTCHAR RDZA
ENCODING 9516
SWIDTH 827 0
DWIDTH 24 0
BBX 21 13 3 0
BITMAP
7fff80
7fff98
00c070
004080
3fff80
3fff80
300000
7ffe00
7ffc00
600000
fffe00
ffff80
000040
ENDCHAR
STARTCHAR RGWA
ENCODING 9517
SWIDTH 827 0
DWIDTH 24 0
BBX 19 22 3 -9
BITMAP
7fff80
7fff80
00c000
004000
ffffe0
ffffe0
1ff8e0
3c38e0
701ce0
400c60
800c60
ff8460
ffe460
00fc20
000420
000020
0000e0
000320
000620
0001a0
000060
000020
ENDCHAR
STARTCHAR RTSWA
ENCODING 9518
SWIDTH 827 0
DWIDTH 24 0
BBX 22 21 2 -8
BITMAP
3fffc0
3fffcc
006038
002040
3fffc0
3fffc0
01c000
00c000
03ff00
0e07c0
f000e0
1c00e0
0f81c0
01fe00
000200
000e00
003200
006200
001a00
000600
000200
ENDCHAR
STARTCHAR RKYA
ENCODING 9520
SWIDTH 827 0
DWIDTH 24 0
BBX 21 22 1 -9
BITMAP
1fffe0
1fffe0
003000
001000
3ffff0
3ffff0
01f070
017070
033070
0e1830
7c0830
f00c30
800430
000410
000010
000010
7c0060
33ffc0
1c3e18
070050
01ffe0
003f80
ENDCHAR
STARTCHAR RGYA
ENCODING 9521
SWIDTH 827 0
DWIDTH 24 0
BBX 21 22 3 -9
BITMAP
7fff80
7fff80
00c000
004000
ffffe0
ffffe0
1ff8e0
3c38e0
701ce0
400c60
800c60
ff8460
ffe460
00fc20
000420
000020
7c0040
33ff80
1c3e18
070030
01ffe0
003f80
ENDCHAR
STARTCHAR RMYA
ENCODING 9522
SWIDTH 827 0
DWIDTH 24 0
BBX 22 22 2 -9
BITMAP
3ff800
3ff800
030000
010000
7ff8f0
3ff8f0
030030
01c030
3ff030
7ffc10
804610
804110
408090
3f0050
000030
000010
3e0020
19ffc0
0e1f0c
038018
00fff0
001fc0
ENDCHAR
STARTCHAR LKA
ENCODING 9536
SWIDTH 827 0
DWIDTH 24 0
BBX 20 19 2 -6
BITMAP
0ff070
3ff070
403030
803030
c03010
706010
31fc10
01ff90
000070
3ffff0
3ffff0
017070
023070
3c1830
780830
800430
000210
000010
000010
ENDCHAR
STARTCHAR LGA
ENCODING 9537
SWIDTH 827 0
DWIDTH 24 0
BBX 20 19 2 -6
BITMAP
0ff070
3ff070
403030
803030
c03010
706010
31fc10
01ff90
000070
7ffff0
7ffff0
0ffc30
1e1c30
300e30
400610
7f0610
7ff210
000e10
000010
ENDCHAR
STARTCHAR LNGA
ENCODING 9538
SWIDTH 827 0
DWIDTH 24 0
BBX 20 18 2 -5
BITMAP
0ff070
3ff070
403030
803030
c03010
706010
31fc10
01ff90
000070
3fffc0
3fffc0
1f0000
1c0000
380000
7fe000
7ffe00
000380
000060
ENDCHAR
STARTCHAR LCA
ENCODING 9539
SWIDTH 827 0
DWIDTH 24 0
BBX 20 19 2 -6
BITMAP
0ff070
3ff070
403030
803030
c03010
706010
31fc10
01ff90
000070
3fffc0
3fffc0
01c000
00c000
03ff00
0e07c0
f000e0
1c00e0
0f81c0
01fe00
ENDCHAR
STARTCHAR LJA
ENCODING 9540
SWIDTH 827 0
DWIDTH 24 0
BBX 20 18 2 -5
BITMAP
0ff070
3ff070
403030
803030
c03010
706010
31fc10
01ff90
000070
1fffc0
1fffc0
180000
3fff00
3ffe00
300000
7fff00
7fffc0
000020
ENDCHAR
STARTCHAR LTA
ENCODING 9541
SWIDTH 827 0
DWIDTH 24 0
BBX 20 21 2 -8
BITMAP
0ff070
3ff070
403030
803030
c03010
706010
31fc10
01ff90
000070
3fffc0
3fffc0
180000
187f00
09ffc0
0500e0
060060
020060
0000c0
000300
000c00
003000
ENDCHAR
STARTCHAR LDA
ENCODING 9542
SWIDTH 827 0
DWIDTH 24 0
BBX 20 22 2 -9
BITMAP
0ff070
3ff070
403030
803030
c03010
706010
31fc10
01ff90
000070
7fff80
7fff80
1f8000
380000
300000
600000
fff800
fffe00
000700
000180
0000c0
000020
000010
ENDCHAR
STARTCHAR LPA
ENCODING 9543
SWIDTH 827 0
DWIDTH 24 0
BBX 20 20 2 -7
BITMAP
0ff070
3ff070
403030
803030
c03010
706010
31fc10
01ff90
000070
3ff0f0
3ff0f0
0f0030
1c0030
300030
200030
400010
7fe010
7fff10
0003d0
000030
ENDCHAR
STARTCHAR LBA
ENCODING 9544
SWIDTH 827 0
DWIDTH 24 0
BBX 20 20 2 -7
BITMAP
0ff070
3ff070
403030
803030
c03010
706010
31fc10
01ff90
000070
3ffff0
3ffff0
0f0030
1c0030
300030
200030
400010
7fe010
7fff10
0003d0
000030
ENDCHAR
STARTCHAR LHA
ENCODING 9545
SWIDTH 827 0
DWIDTH 24 0
BBX 20 19 2 -6
BITMAP
0ff070
3ff070
403030
803030
c03010
706010
31fc10
01ff90
000070
3fff00
7ffe00
180000
303fc0
3effe0
0780e0
00c0e0
002180
000e00
003000
ENDCHAR
STARTCHAR SKA
ENCODING 9552
SWIDTH 827 0
DWIDTH 24 0
BBX 20 19 2 -6
BITMAP
1ffcf0
3ff8f0
0de030
187030
100c30
3fc310
3ff090
000850
000030
3ffff0
3ffff0
017070
023070
3c1830
780830
800430
000210
000010
000010
ENDCHAR
STARTCHAR SGA
ENCODING 9553
SWIDTH 827 0
DWIDTH 24 0
BBX 19 19 3 -6
BITMAP
3ff9e0
7ff1e0
1bc060
30e060
201860
7f8620
7fe120
0010a0
000060
ffffe0
ffffe0
1ff860
3c3860
601c60
800c20
fe0c20
ffe420
001c20
000020
ENDCHAR
STARTCHAR SNGA
ENCODING 9554
SWIDTH 827 0
DWIDTH 24 0
BBX 19 18 3 -5
BITMAP
3ff9e0
7ff1e0
1bc060
30e060
201860
7f8620
7fe120
0010a0
000060
7fff80
7fff80
3e0000
380000
700000
ffc000
fffc00
000700
0000c0
ENDCHAR
STARTCHAR SNYA
ENCODING 9555
SWIDTH 827 0
DWIDTH 24 0
BBX 19 21 3 -8
BITMAP
3ff9e0
7ff1e0
1bc060
30e060
201860
7f8620
7fe120
0010a0
000060
1ff800
60f800
800800
80fe00
c3ff80
6603c0
0600c0
0300c0
01c180
000300
000400
001800
ENDCHAR
STARTCHAR STA
ENCODING 9556
SWIDTH 827 0
DWIDTH 24 0
BBX 18 21 4 -8
BITMAP
7ff3c0
ffe3c0
3780c0
61c0c0
4030c0
ff0c40
ffc240
002140
0000c0
ffff00
ffff00
600000
61fc00
27ff00
140380
180180
080180
000300
000c00
003000
00c000
ENDCHAR
STARTCHAR SDA
ENCODING 9557
SWIDTH 827 0
DWIDTH 24 0
BBX 20 22 2 -9
BITMAP
1ffcf0
3ff8f0
0de030
187030
100c30
3fc310
3ff090
000850
000030
7fff80
7fff80
1f8000
380000
300000
600000
fff800
fffe00
000700
000180
0000c0
000020
000010
ENDCHAR
STARTCHAR SNA
ENCODING 9558
SWIDTH 827 0
DWIDTH 24 0
BBX 19 21 3 -8
BITMAP
3ff9e0
7ff1e0
1bc060
30e060
201860
7f8620
7fe120
0010a0
000060
3fff00
3fff00
078000
018000
7fe000
fff000
807800
80cc00
7f0600
000100
000080
000040
ENDCHAR
STARTCHAR SPA
ENCODING 9559
SWIDTH 827 0
DWIDTH 24 0
BBX 20 18 2 -5
BITMAP
1ffcf0
3ff8f0
0de030
187030
100c30
3fc310
3ff090
000850
000030
7ff870
7ff070
380030
600030
600030
ffc010
fffe10
0003d0
000030
ENDCHAR
STARTCHAR SBA
ENCODING 9560
SWIDTH 827 0
DWIDTH 24 0
BBX 20 18 2 -5
BITMAP
1ffcf0
3ff8f0
0de030
187030
100c30
3fc310
3ff090
000850
000030
7ffff0
7ffff0
380030
600030
600030
ffc010
fffe10
0003d0
000030
ENDCHAR
STARTCHAR SMA
ENCODING 9561
SWIDTH 827 0
DWIDTH 24 0
BBX 20 21 2 -8
BITMAP
1ffcf0
3ff8f0
0de030
187030
100c30
3fc310
3ff090
000850
000030
7ff8f0
3ff8f0
030030
01c030
3ff030
7ffc10
804610
804110
408090
3f0050
000030
000010
ENDCHAR
STARTCHAR STSA
ENCODING 9562
SWIDTH 827 0
DWIDTH 24 0
BBX 22 19 2 -6
BITMAP
7ff780
ffe780
378180
60e180
401980
ff0480
ffc28c
0021b8
0000c0
3fffc0
3fffc0
01c000
00c000
03ff00
0e07c0
f000e0
1c00e0
0f81c0
01fe00
ENDCHAR
STARTCHAR SKYA
ENCODING 9568
SWIDTH 827 0
DWIDTH 24 0
BBX 20 22 4 -9
BITMAP
7ff3c0
ffe3c0
3780c0
61c0c0
4030c0
ff0c40
ffc240
002140
0000c0
ffffc0
ffffc0
0580c0
08c0c0
704040
802040
001040
000040
700180
3ffe30
0e0060
03ffc0
007f00
ENDCHAR
STARTCHAR SGYA
ENCODING 9569
SWIDTH 827 0
DWIDTH 24 0
BBX 21 22 3 -9
BITMAP
3ff9e0
7ff1e0
1bc060
30e060
201860
7f8620
7fe120
0010a0
000060
ffffe0
ffffe0
1ff860
383860
601c60
fe0c20
ffe420
001c20
380040
1fff90
070038
01ffe0
003f80
ENDCHAR
STARTCHAR SPYA
ENCODING 9570
SWIDTH 827 0
DWIDTH 24 0
BBX 22 22 2 -9
BITMAP
1ffcf0
3ff8f0
0de030
187030
100c30
3fc310
3ff090
000850
000030
7ff870
7ff070
380030
600030
ffc030
fffe10
0003d0
000030
1c0060
0fff8c
038018
00fff0
001fc0
ENDCHAR
STARTCHAR SBYA
ENCODING 9571
SWIDTH 888 0
DWIDTH 24 0
BBX 22 22 2 -9
BITMAP
1ffcf0
3ff8f0
0de030
187030
100c30
3fc310
3ff090
000850
000030
7ffff0
7ffff0
380030
600030
ffc030
fffe10
0003d0
000030
1c0060
0fff8c
038018
00fff0
001fc0
ENDCHAR
STARTCHAR SMYA
ENCODING 9572
SWIDTH 827 0
DWIDTH 24 0
BBX 21 22 3 -9
BITMAP
3ff9e0
7ff1e0
1bc060
30e060
201860
7f8620
7fe120
0010a0
000060
fff1e0
7ff1e0
060060
3fe060
7ff820
808620
8081a0
7f0060
3800e0
1fff18
070030
01ffe0
003f80
ENDCHAR
STARTCHAR SKRA
ENCODING 9584
SWIDTH 827 0
DWIDTH 24 0
BBX 18 21 4 -8
BITMAP
7ff3c0
ffe3c0
3780c0
61c0c0
4030c0
ff0c40
ffc240
002140
0000c0
ffffc0
ffffc0
0580c0
08c0c0
704040
802040
001040
000040
ffc040
fff840
003f40
0000c0
ENDCHAR
STARTCHAR SGRA
ENCODING 9585
SWIDTH 827 0
DWIDTH 24 0
BBX 19 22 3 -9
BITMAP
3ff9e0
7ff1e0
1bc060
30e060
201860
7f8620
7fe120
0010a0
000060
ffffe0
ffffe0
1ff860
3c3860
601c60
800c20
fe0c20
ffe420
001c20
7fe020
7ffc20
001fa0
000060
ENDCHAR
STARTCHAR SNRA
ENCODING 9586
SWIDTH 827 0
DWIDTH 24 0
BBX 18 22 4 -9
BITMAP
7ff3c0
ffe3c0
3780c0
61c0c0
4030c0
ff0c40
ffc240
002140
0000c0
3fff40
3fff00
008000
7fe000
fff800
804c00
80c200
7f0100
000100
ffc080
fff880
003f40
0000c0
ENDCHAR
STARTCHAR SPRA
ENCODING 9587
SWIDTH 827 0
DWIDTH 24 0
BBX 20 22 2 -9
BITMAP
1ffcf0
3ff8f0
0de030
187030
100c30
3fc310
3ff090
000850
000030
7ff870
7ff070
380030
600030
600030
ffc010
fffe10
0003d0
000030
3ff010
3ffe10
000fd0
000030
ENDCHAR
STARTCHAR SBRA
ENCODING 9588
SWIDTH 827 0
DWIDTH 24 0
BBX 20 22 2 -9
BITMAP
1ffcf0
3ff8f0
0de030
187030
100c30
3fc310
3ff090
000850
000030
7ffff0
7ffff0
380030
600030
600030
ffc010
fffe10
0003d0
000030
3ff010
3ffe10
000fd0
000030
ENDCHAR
STARTCHAR SMRA
ENCODING 9589
SWIDTH 827 0
DWIDTH 24 0
BBX 19 22 3 -9
BITMAP
3ff9e0
7ff1e0
1bc060
30e060
201860
7f8620
7fe120
0010a0
000060
fff1e0
7ff1e0
060060
3fe060
7ff820
808620
8081a0
7f0060
000020
7fe020
7ffc20
001fa0
000060
ENDCHAR
ENDFONT
